# xmcd CD database file
#
# Track frame offsets:
#	150
#	18900
#	49050
#	72325
#	107425
#	129425
#	148800
#	171225
#	191260
#	212275
#	227400
#	253725
#	274625
#
# Disc length: 3933 seconds
#
# Revision: 1
# Processed by: cddbd v1.4PL0 Copyright (c) Steve Scherf et al.
# Submitted via: Feurio! 1.66 - http://www.feurio.com
#
DISCID=ad0f5b0d
DTITLE=Giantstep Records - Soul Sessions 2
DYEAR=2002
DGENRE=Other
TTITLE0=Jazzanova - No Use
TTITLE1=Bb Boogie - Tell Him
TTITLE2=Donnie - Cloud 9
TTITLE3=Nickodemus and Osiris Feat. Petra Phillipson - Why Can't We Live 
TTITLE3=Together?
TTITLE4=Kim Hill - Summertime In Aspen
TTITLE5=Peven Everett - Run Around
TTITLE6=Jiva - Love Chooses Lovers
TTITLE7=John Forte Feat. Robyn Springer - Harmonize
TTITLE8=Fertile Ground - Take Me Higher
TTITLE9=Rosey - Love (Koop Remix)
TTITLE10=Seek - Surrender
TTITLE11=Carl Hancock Rux - Protean Character
TTITLE12=Zero 7 - In The Waiting Line
EXTD=
EXTT0=
EXTT1=
EXTT2=
EXTT3=
EXTT4=
EXTT5=
EXTT6=
EXTT7=
EXTT8=
EXTT9=
EXTT10=
EXTT11=
EXTT12=
PLAYORDER=
